<svg xmlns="http://www.w3.org/2000/svg" version="1.1" xmlns:xlink="http://www.w3.org/1999/xlink" xmlns:svgjs="http://svgjs.dev/svgjs" viewBox="0 0 5.877833357575209 1.9002568362820789"><g transform="matrix(1,0,0,1,1.6634721689283913,0.4301170017368234)"><g><path d=" M 0.83079 0.5636340000000001 C 0.837306 0.5652630000000001 0.838935 0.5636340000000001 0.834048 0.5587470000000001 C 0.838935 0.557118 0.838935 0.55386 0.832419 0.547344 C 0.829161 0.5457150000000001 0.822645 0.5440860000000001 0.827532 0.5375700000000001 C 0.834048 0.5196510000000001 0.971967 0.514764 0.843822 0.5033610000000001 C 0.842193 0.4984740000000001 0.840564 0.4984740000000001 0.840564 0.49684500000000004 L 0.840564 0.49032900000000007 L 0.842193 0.49032900000000007 C 0.842193 0.4887000000000001 0.840564 0.4870710000000001 0.838935 0.48544200000000004 L 0.837306 0.48055500000000007 L 0.837306 0.46100700000000006 C 0.76563 0.5831820000000001 0.612504 0.811242 0.579924 0.811242 L 0.575037 0.809613 C 0.573408 0.806355 0.57015 0.8030970000000001 0.57015 0.7998390000000001 C 0.576666 0.7542270000000001 0.579924 0.7249050000000001 0.589698 0.68418 C 0.609246 0.591327 0.641826 0.5033610000000001 0.641826 0.40725000000000006 C 0.641826 0.3697830000000001 0.623907 0.3274290000000001 0.583182 0.3274290000000001 C 0.578295 0.3274290000000001 0.560376 0.3274290000000001 0.555489 0.3241710000000001 C 0.548973 0.3274290000000001 0.540828 0.3274290000000001 0.527796 0.3274290000000001 C 0.490329 0.3274290000000001 0.399105 0.47403900000000004 0.37467 0.5098770000000001 C 0.37467 0.4789260000000001 0.384444 0.360009 0.329058 0.360009 C 0.324171 0.360009 0.30951 0.360009 0.29322 0.360009 C 0.278559 0.360009 0.26226900000000003 0.360009 0.257382 0.361638 C 0.205254 0.3877020000000001 0.140094 0.48381300000000005 0.115659 0.532683 C 0.118917 0.49684500000000004 0.148239 0.42842700000000006 0.156384 0.363267 C 0.15801300000000001 0.35186400000000007 0.156384 0.3274290000000001 0.153126 0.320913 C 0.138465 0.3029940000000001 0.094482 0.29322000000000004 0.071676 0.29322000000000004 C 0.050499 0.39747600000000005 -0.029322 0.60273 -0.029322 0.767259 C -0.029322 0.790065 -0.01629 0.811242 0 0.827532 L 0.009774 0.83079 C 0.013032 0.829161 0.035838 0.827532 0.040725 0.827532 C 0.045612 0.827532 0.048870000000000004 0.829161 0.052128 0.832419 L 0.058644 0.832419 C 0.06516 0.825903 0.071676 0.8210160000000001 0.079821 0.8161290000000001 C 0.100998 0.7705170000000001 0.115659 0.720018 0.135207 0.6727770000000001 C 0.166158 0.5978430000000001 0.231318 0.46915200000000007 0.281817 0.41865300000000005 L 0.28344600000000003 0.41865300000000005 C 0.285075 0.46100700000000006 0.237834 0.720018 0.218286 0.7721460000000001 L 0.218286 0.7770330000000001 L 0.21665700000000002 0.7802910000000001 L 0.21665700000000002 0.786807 C 0.218286 0.7916940000000001 0.242721 0.8177580000000001 0.24435 0.8193870000000001 L 0.252495 0.8161290000000001 L 0.257382 0.8210160000000001 L 0.26226900000000003 0.8210160000000001 L 0.265527 0.8161290000000001 C 0.270414 0.8210160000000001 0.281817 0.827532 0.286704 0.832419 L 0.296478 0.8177580000000001 L 0.312768 0.8210160000000001 C 0.322542 0.8128710000000001 0.350235 0.7493400000000001 0.355122 0.7346790000000001 C 0.39096000000000003 0.6516000000000001 0.42354 0.5652630000000001 0.475668 0.4887000000000001 C 0.49847400000000003 0.4561200000000001 0.519651 0.41865300000000005 0.5457150000000001 0.39584700000000006 C 0.550602 0.4870710000000001 0.45612 0.6939540000000001 0.485442 0.8014680000000001 C 0.496845 0.84708 0.516393 0.9768540000000001 0.563634 0.871515 C 0.568521 0.873144 0.571779 0.873144 0.576666 0.873144 C 0.659745 0.873144 0.8145 0.6320520000000001 0.83079 0.5636340000000001 M 0.822645 0.5620050000000001 C 0.827532 0.5620050000000001 0.829161 0.5620050000000001 0.832419 0.5587470000000001 C 0.83079 0.5620050000000001 0.83079 0.5636340000000001 0.83079 0.5636340000000001 C 0.829161 0.5636340000000001 0.827532 0.5636340000000001 0.822645 0.5620050000000001 M 1.267081538378906 0.4675230000000001 C 1.249162538378906 0.4772970000000001 1.2133245383789062 0.5375700000000001 1.200292538378906 0.557118 C 1.1546805383789063 0.623907 1.006441538378906 0.8014680000000001 0.9298785383789061 0.8014680000000001 C 0.8386545383789061 0.8014680000000001 0.9103305383789061 0.5831820000000001 0.9331365383789061 0.5424570000000001 C 0.9363945383789062 0.535941 1.123729538378906 0.5343120000000001 1.123729538378906 0.3860730000000001 C 1.123729538378906 0.3486060000000001 1.1074395383789062 0.33720300000000003 1.0748595383789061 0.3274290000000001 C 1.0650855383789062 0.3225420000000001 1.014586538378906 0.3046230000000001 1.003183538378906 0.3046230000000001 C 0.9966675383789061 0.3046230000000001 0.9754905383789061 0.3046230000000001 0.9738615383789061 0.30951000000000006 L 0.9722325383789061 0.31276800000000005 C 0.8858955383789061 0.37955700000000003 0.7897845383789062 0.568521 0.7832685383789061 0.6825510000000001 C 0.7783815383789061 0.783549 0.8353965383789062 0.84708 0.9380235383789062 0.8617410000000001 C 0.9412815383789062 0.8617410000000001 0.9445395383789061 0.8633700000000001 0.9494265383789061 0.8633700000000001 C 1.0439085383789062 0.8633700000000001 1.2035505383789062 0.6858090000000001 1.2459045383789062 0.578295 C 1.250791538378906 0.5620050000000001 1.267081538378906 0.5440860000000001 1.2687105383789061 0.5229090000000001 L 1.2654525383789061 0.518022 C 1.2654525383789061 0.518022 1.260565538378906 0.5163930000000001 1.260565538378906 0.514764 C 1.260565538378906 0.506619 1.2687105383789061 0.49521600000000005 1.2687105383789061 0.48544200000000004 L 1.2654525383789061 0.4789260000000001 C 1.267081538378906 0.47566800000000004 1.267081538378906 0.47078100000000006 1.267081538378906 0.4675230000000001 M 1.0406505383789062 0.3714120000000001 C 1.073230538378906 0.40562100000000006 1.030876538378906 0.46426500000000004 0.9624585383789062 0.4789260000000001 C 0.9820065383789062 0.4447170000000001 1.0259895383789062 0.37955700000000003 1.0406505383789062 0.3714120000000001 M 1.7928758091796875 0.48381300000000005 C 1.7863598091796875 0.4887000000000001 1.7554088091796876 0.535941 1.7472638091796875 0.5522310000000001 C 1.6886198091796873 0.6516000000000001 1.6087988091796874 0.7721460000000001 1.5697028091796874 0.7819200000000001 L 1.5680738091796875 0.7819200000000001 C 1.5403808091796876 0.6923250000000001 1.6202018091796875 0.5098770000000001 1.6006538091796876 0.44145900000000005 C 1.5990248091796875 0.43657200000000007 1.5990248091796875 0.42842700000000006 1.5973958091796874 0.4251690000000001 C 1.5892508091796875 0.40562100000000006 1.5420098091796874 0.3877020000000001 1.5126878091796874 0.382815 C 1.4703338091796874 0.3860730000000001 1.3839968091796875 0.5001030000000001 1.3677068091796876 0.518022 L 1.3709648091796875 0.5131350000000001 C 1.3823678091796874 0.47566800000000004 1.4100608091796876 0.3681540000000001 1.3611908091796874 0.35186400000000007 C 1.3449008091796875 0.3469770000000001 1.3090628091796874 0.340461 1.2992888091796875 0.338832 L 1.2976598091796874 0.3486060000000001 C 1.2976598091796874 0.3502350000000001 1.2976598091796874 0.35675100000000004 1.2976598091796874 0.35838000000000003 C 1.3025468091796875 0.41865300000000005 1.1966618091796875 0.6695190000000001 1.2015488091796875 0.7802910000000001 C 1.2015488091796875 0.7916940000000001 1.2048068091796875 0.7965810000000001 1.2080648091796875 0.806355 L 1.2113228091796875 0.807984 C 1.2178388091796875 0.811242 1.2178388091796875 0.8177580000000001 1.2243548091796874 0.8226450000000001 C 1.2308708091796874 0.8226450000000001 1.2536768091796875 0.832419 1.2601928091796875 0.8389350000000001 L 1.2634508091796874 0.8356770000000001 C 1.2683378091796875 0.8373060000000001 1.2650798091796875 0.8389350000000001 1.2699668091796874 0.8405640000000001 C 1.2748538091796875 0.8405640000000001 1.2764828091796874 0.8405640000000001 1.2781118091796875 0.8405640000000001 C 1.2781118091796875 0.8405640000000001 1.2797408091796876 0.8405640000000001 1.2829988091796876 0.8405640000000001 C 1.2846278091796874 0.8389350000000001 1.2878858091796874 0.8373060000000001 1.2927728091796875 0.8373060000000001 C 1.2960308091796875 0.83079 1.2992888091796875 0.8177580000000001 1.3058048091796874 0.7998390000000001 C 1.3465298091796876 0.676035 1.4230928091796875 0.5668920000000001 1.5012848091796875 0.4658940000000001 C 1.5012848091796875 0.4658940000000001 1.5045428091796875 0.4577490000000001 1.5045428091796875 0.4658940000000001 C 1.5078008091796875 0.508248 1.4556728091796876 0.6450840000000001 1.4605598091796874 0.7281630000000001 C 1.4621888091796875 0.7916940000000001 1.5094298091796876 0.8373060000000001 1.5713318091796875 0.8373060000000001 C 1.6837328091796875 0.8128710000000001 1.7537798091796875 0.659745 1.8010208091796875 0.568521 C 1.8042788091796875 0.5522310000000001 1.7961338091796875 0.535941 1.8026498091796874 0.518022 C 1.8026498091796874 0.5098770000000001 1.8042788091796875 0.50499 1.7961338091796875 0.5001030000000001 C 1.7977628091796873 0.49358700000000005 1.7977628091796873 0.48544200000000004 1.7928758091796875 0.48381300000000005 M 1.7062551659179688 0.18570600000000004 C 1.7632701659179686 0.18570600000000004 1.8430911659179687 0.17756100000000008 1.9277991659179687 0.16778700000000002 C 1.8512361659179688 0.381186 1.7600121659179686 0.5864400000000001 1.7714151659179687 0.7346790000000001 C 1.7746731659179686 0.7786620000000001 1.7991081659179686 0.9784830000000001 1.8675261659179687 0.874773 C 1.8935901659179688 0.874773 1.9131381659179687 0.871515 1.9326861659179686 0.970338 C 1.9945881659179687 0.7965810000000001 2.116763165917969 0.6434550000000001 2.1330531659179686 0.581553 L 2.1330531659179686 0.568521 C 2.134682165917969 0.5636340000000001 2.1379401659179686 0.5522310000000001 2.141198165917969 0.5424570000000001 C 2.141198165917969 0.539199 2.1574881659179685 0.506619 2.1558591659179687 0.50499 C 2.1574881659179685 0.5001030000000001 2.1558591659179687 0.49684500000000004 2.1558591659179687 0.49358700000000005 L 2.154230165917969 0.49032900000000007 C 2.154230165917969 0.4870710000000001 2.152601165917969 0.46915200000000007 2.1509721659179686 0.4658940000000001 L 2.1460851659179685 0.46426500000000004 L 2.1428271659179687 0.4658940000000001 C 2.0776671659179686 0.5864400000000001 1.9131381659179687 0.8226450000000001 1.8740421659179687 0.8210160000000001 C 1.8447201659179686 0.729792 1.8984771659179687 0.5848110000000001 1.9229121659179687 0.49521600000000005 C 1.9897011659179686 0.35186400000000007 2.0336841659179687 0.24109200000000008 2.0483451659179686 0.1547550000000001 C 2.0776671659179686 0.1531260000000001 2.1069891659179687 0.149868 2.1330531659179686 0.149868 C 2.1444561659179686 0.149868 2.1558591659179687 0.149868 2.165633165917969 0.1514970000000001 C 2.225906165917969 0.1514970000000001 2.268260165917969 0.16290000000000004 2.2650021659179687 0.171045 L 2.268260165917969 0.171045 C 2.2894371659179686 0.11077200000000009 2.2112451659179686 0.09285300000000007 2.1200211659179686 0.09285300000000007 C 2.098844165917969 0.09285300000000007 2.0760381659179687 0.09448200000000007 2.0548611659179685 0.09611100000000006 C 2.056490165917969 0.07656300000000005 2.0548611659179685 0.05701500000000004 2.0532321659179686 0.04072500000000001 C 2.049974165917969 0.03746700000000003 2.0467161659179687 0.034209000000000045 2.0467161659179687 0.02769300000000008 C 2.0467161659179687 0.00977400000000006 1.9962171659179686 0 1.9815561659179688 0 C 1.9782981659179688 0.0016290000000001026 1.9782981659179688 0.00977400000000006 1.9766691659179687 0.016290000000000027 C 1.9685241659179686 0.0456120000000001 1.9587501659179687 0.07656300000000005 1.9489761659179687 0.105885 C 1.9359441659179688 0.10751400000000011 1.9229121659179687 0.10751400000000011 1.9163961659179687 0.1091430000000001 C 1.8463491659179687 0.11891700000000005 1.7534961659179686 0.1286910000000001 1.6801911659179687 0.1286910000000001 C 1.6362081659179686 0.1286910000000001 1.6003701659179688 0.12543300000000002 1.5775641659179687 0.11565900000000007 C 1.5677901659179687 0.11240100000000008 1.5677901659179687 0.11565900000000007 1.5596451659179686 0.10425600000000002 C 1.5596451659179686 0.10425600000000002 1.5612741659179687 0.09285300000000007 1.5563871659179687 0.09936900000000004 L 1.5563871659179687 0.10425600000000002 C 1.5286941659179687 0.18407700000000005 1.6606431659179688 0.18570600000000004 1.7013681659179687 0.18570600000000004 C 1.7029971659179688 0.18570600000000004 1.7046261659179687 0.18570600000000004 1.7062551659179688 0.18570600000000004 M 2.5172055685546875 0.39910500000000004 C 2.5302375685546874 0.39910500000000004 2.5432695685546878 0.39910500000000004 2.5563015685546877 0.40073400000000003 L 2.5595595685546875 0.39910500000000004 C 2.5579305685546876 0.39910500000000004 2.554672568554688 0.3925890000000001 2.554672568554688 0.3925890000000001 C 2.554672568554688 0.3909600000000001 2.554672568554688 0.38933100000000004 2.5563015685546877 0.38933100000000004 L 2.554672568554688 0.382815 L 2.5595595685546875 0.381186 L 2.5579305685546876 0.37955700000000003 L 2.5742205685546877 0.3665250000000001 C 2.5677045685546878 0.35186400000000007 2.5400115685546876 0.3486060000000001 2.5123185685546874 0.3486060000000001 C 2.4927705685546875 0.3486060000000001 2.4715935685546877 0.3502350000000001 2.4618195685546875 0.3502350000000001 C 2.4259815685546875 0.35349300000000006 2.3787405685546874 0.363267 2.3396445685546876 0.37629900000000005 C 2.349418568554688 0.360009 2.3510475685546877 0.37792800000000004 2.3575635685546876 0.35349300000000006 C 2.3445315685546877 0.33231600000000006 2.3152095685546876 0.31276800000000005 2.2891455685546878 0.31276800000000005 C 2.2810005685546875 0.31276800000000005 2.2728555685546876 0.31439700000000004 2.2663395685546877 0.317655 C 2.2467915685546878 0.3241710000000001 2.088778568554688 0.578295 2.0985525685546875 0.7281630000000001 C 2.1001815685546874 0.790065 2.1539385685546875 0.829161 2.2125825685546876 0.829161 C 2.2695975685546874 0.827532 2.3282415685546876 0.742824 2.3477895685546875 0.6955830000000001 C 2.367337568554688 0.6450840000000001 2.3966595685546874 0.5424570000000001 2.3934015685546877 0.4870710000000001 C 2.391772568554688 0.4658940000000001 2.3885145685546876 0.44145900000000005 2.3803695685546877 0.42191100000000004 C 2.4227235685546877 0.4121370000000001 2.4667065685546876 0.4023630000000001 2.5172055685546875 0.39910500000000004 M 2.1946635685546876 0.762372 C 2.1930345685546877 0.7314210000000001 2.2142115685546875 0.6434550000000001 2.2370175685546876 0.578295 C 2.2435335685546876 0.568521 2.2712265685546877 0.49358700000000005 2.3054355685546875 0.43820100000000006 C 2.3086935685546877 0.4463460000000001 2.3119515685546874 0.45123300000000005 2.3119515685546874 0.45937800000000006 C 2.318467568554688 0.5375700000000001 2.2647105685546878 0.708615 2.2076955685546875 0.768888 C 2.2060665685546876 0.7737750000000001 2.2044375685546878 0.7786620000000001 2.197921568554688 0.7786620000000001 C 2.1962925685546875 0.7721460000000001 2.1962925685546875 0.767259 2.1946635685546876 0.762372 M 2.9290064282226567 0.40887900000000005 L 2.9290064282226567 0.40562100000000006 C 2.9290064282226567 0.40562100000000006 2.9322644282226564 0.37955700000000003 2.9322644282226564 0.37629900000000005 L 2.9322644282226564 0.3714120000000001 C 2.9290064282226567 0.3665250000000001 2.9338934282226563 0.360009 2.9306354282226565 0.35186400000000007 C 2.9322644282226564 0.3469770000000001 2.9273774282226563 0.33231600000000006 2.9224904282226563 0.3274290000000001 L 2.9127164282226565 0.3225420000000001 L 2.9029424282226564 0.3225420000000001 C 2.8947974282226565 0.320913 2.8899104282226564 0.317655 2.8833944282226565 0.317655 C 2.7937994282226564 0.317655 2.7139784282226564 0.43168500000000004 2.6699954282226566 0.5001030000000001 C 2.6569634282226566 0.5229090000000001 2.6471894282226565 0.532683 2.6374154282226563 0.5522310000000001 C 2.6553344282226563 0.48055500000000007 2.6993174282226566 0.34209 2.6993174282226566 0.28833300000000006 C 2.6993174282226566 0.275301 2.6830274282226565 0.2606400000000001 2.6537054282226564 0.255753 C 2.6471894282226565 0.254124 2.6390444282226566 0.252495 2.6308994282226563 0.252495 C 2.6260124282226567 0.252495 2.6211254282226566 0.254124 2.6178674282226564 0.255753 L 2.5983194282226565 0.317655 C 2.5592234282226562 0.43983000000000005 2.4940634282226566 0.63531 2.4940634282226566 0.762372 C 2.4940634282226566 0.8210160000000001 2.5103534282226563 0.8226450000000001 2.5559654282226565 0.9752250000000001 C 2.5608524282226566 0.9752250000000001 2.5624814282226565 0.8601120000000001 2.5657394282226567 0.8601120000000001 L 2.5706264282226563 0.9784830000000001 L 2.5755134282226564 0.8601120000000001 C 2.5869164282226564 0.9784830000000001 2.5966904282226566 0.84708 2.6015774282226563 0.8389350000000001 C 2.6211254282226566 0.806355 2.6276414282226566 0.768888 2.6406734282226565 0.729792 C 2.6846564282226564 0.6059880000000001 2.7465584282226563 0.46426500000000004 2.8622174282226567 0.3877020000000001 C 2.8719914282226564 0.37955700000000003 2.8931684282226566 0.3697830000000001 2.9045714282226562 0.3697830000000001 C 2.9078294282226564 0.3697830000000001 2.9224904282226563 0.40073400000000003 2.9290064282226567 0.40887900000000005 M 3.3766778997070315 0.4675230000000001 C 3.3587588997070315 0.4772970000000001 3.3229208997070314 0.5375700000000001 3.3098888997070315 0.557118 C 3.2642768997070313 0.623907 3.1160378997070315 0.8014680000000001 3.0394748997070313 0.8014680000000001 C 2.9482508997070314 0.8014680000000001 3.0199268997070314 0.5831820000000001 3.0427328997070315 0.5424570000000001 C 3.0459908997070313 0.535941 3.2333258997070313 0.5343120000000001 3.2333258997070313 0.3860730000000001 C 3.2333258997070313 0.3486060000000001 3.217035899707031 0.33720300000000003 3.1844558997070314 0.3274290000000001 C 3.174681899707031 0.3225420000000001 3.1241828997070313 0.3046230000000001 3.1127798997070313 0.3046230000000001 C 3.1062638997070313 0.3046230000000001 3.0850868997070315 0.3046230000000001 3.083457899707031 0.30951000000000006 L 3.0818288997070313 0.31276800000000005 C 2.9954918997070314 0.37955700000000003 2.8993808997070314 0.568521 2.8928648997070314 0.6825510000000001 C 2.8879778997070313 0.783549 2.944992899707031 0.84708 3.047619899707031 0.8617410000000001 C 3.0508778997070314 0.8617410000000001 3.054135899707031 0.8633700000000001 3.0590228997070312 0.8633700000000001 C 3.1535048997070314 0.8633700000000001 3.3131468997070312 0.6858090000000001 3.3555008997070312 0.578295 C 3.3603878997070313 0.5620050000000001 3.3766778997070315 0.5440860000000001 3.3783068997070314 0.5229090000000001 L 3.375048899707031 0.518022 C 3.375048899707031 0.518022 3.3701618997070315 0.5163930000000001 3.3701618997070315 0.514764 C 3.3701618997070315 0.506619 3.3783068997070314 0.49521600000000005 3.3783068997070314 0.48544200000000004 L 3.375048899707031 0.4789260000000001 C 3.3766778997070315 0.47566800000000004 3.3766778997070315 0.47078100000000006 3.3766778997070315 0.4675230000000001 M 3.150246899707031 0.3714120000000001 C 3.1828268997070315 0.40562100000000006 3.1404728997070315 0.46426500000000004 3.072054899707031 0.4789260000000001 C 3.0916028997070315 0.4447170000000001 3.1355858997070314 0.37955700000000003 3.150246899707031 0.3714120000000001 M 3.8161351705078124 0.5831820000000001 C 3.8259091705078125 0.5343120000000001 3.8340541705078124 0.43983000000000005 3.8340541705078124 0.35838000000000003 C 3.8340541705078124 0.35186400000000007 3.8356831705078127 0.3486060000000001 3.8324251705078125 0.3437190000000001 C 3.8177641705078127 0.33068700000000006 3.8128771705078126 0.33068700000000006 3.8063611705078126 0.3274290000000001 C 3.7982161705078124 0.3225420000000001 3.7640071705078126 0.31276800000000005 3.7542331705078125 0.31276800000000005 C 3.7379431705078123 0.31276800000000005 3.7216531705078126 0.319284 3.7118791705078125 0.33068700000000006 L 3.7151371705078127 0.3469770000000001 C 3.6467191705078124 0.43168500000000004 3.5229151705078126 0.6222780000000001 3.4186591705078127 0.7493400000000001 L 3.4154011705078124 0.744453 C 3.4088851705078125 0.6467130000000001 3.5261731705078123 0.40887900000000005 3.5261731705078123 0.33068700000000006 C 3.5261731705078123 0.3029940000000001 3.4805611705078126 0.2818170000000001 3.4544971705078127 0.2818170000000001 C 3.4479811705078123 0.2818170000000001 3.4430941705078126 0.2834460000000001 3.4365781705078127 0.2850750000000001 C 3.4382071705078125 0.30951000000000006 3.4235461705078123 0.33231600000000006 3.4154011705078124 0.35349300000000006 L 3.3551281705078124 0.50499 C 3.3274351705078127 0.575037 3.3062581705078125 0.6532290000000001 3.3062581705078125 0.7249050000000001 C 3.3062581705078125 0.7591140000000001 3.3665311705078125 0.8210160000000001 3.4056271705078123 0.827532 C 3.4398361705078124 0.827532 3.4740451705078126 0.8014680000000001 3.4968511705078127 0.7770330000000001 C 3.5815591705078127 0.6825510000000001 3.6972181705078127 0.5131350000000001 3.7265401705078123 0.4658940000000001 C 3.7183951705078124 0.547344 3.7102501705078126 0.60273 3.6972181705078127 0.659745 C 3.6858151705078126 0.676035 3.6532351705078123 0.705357 3.6239131705078123 0.7330500000000001 C 3.5343181705078126 0.8193870000000001 3.4382071705078125 0.975771 3.4039981705078124 1.071882 C 3.4056271705078123 1.080027 3.3893371705078126 1.1126070000000001 3.3893371705078126 1.1240100000000002 C 3.3893371705078126 1.128897 3.4365781705078127 1.169622 3.4382071705078125 1.1728800000000001 C 3.4430941705078126 1.174509 3.4479811705078123 1.181025 3.4479811705078123 1.181025 C 3.4577551705078124 1.1907990000000002 3.4952221705078124 1.2005730000000001 3.5098831705078126 1.2005730000000001 C 3.5131411705078124 1.2005730000000001 3.5196571705078123 1.1973150000000001 3.5245441705078124 1.1973150000000001 C 3.5310601705078124 1.198944 3.5522371705078126 1.181025 3.5587531705078126 1.174509 C 3.6711541705078123 1.083285 3.7363141705078124 0.915498 3.7737811705078124 0.7786620000000001 C 3.7786681705078125 0.7525980000000001 3.7949581705078126 0.702099 3.8031031705078124 0.676035 C 3.8047321705078123 0.6727770000000001 3.8650051705078123 0.623907 3.8650051705078123 0.617391 L 3.8047321705078123 0.6662610000000001 C 3.8031031705078124 0.659745 3.8275381705078124 0.6401970000000001 3.8340541705078124 0.63531 C 3.9448261705078123 0.5424570000000001 3.9415681705078125 0.5522310000000001 3.9888091705078126 0.5131350000000001 C 3.9708901705078126 0.5229090000000001 3.9301651705078124 0.5554890000000001 3.9008431705078124 0.5766660000000001 C 3.9155041705078126 0.557118 3.9725191705078124 0.518022 3.9953251705078126 0.49684500000000004 L 4.005099170507813 0.48544200000000004 C 4.005099170507813 0.48381300000000005 4.005099170507813 0.4789260000000001 4.001841170507813 0.4789260000000001 L 4.000212170507813 0.4789260000000001 C 3.9985831705078123 0.48055500000000007 3.9985831705078123 0.48055500000000007 3.9969541705078124 0.48055500000000007 C 3.9920671705078123 0.48055500000000007 3.9888091705078126 0.47566800000000004 3.9855511705078124 0.47403900000000004 C 3.9822931705078126 0.47403900000000004 3.9806641705078123 0.47403900000000004 3.9790351705078124 0.47566800000000004 L 3.9806641705078123 0.46915200000000007 C 3.9057301705078125 0.50499 3.8812951705078125 0.529425 3.8161351705078124 0.5831820000000001 M 3.4642711705078124 1.1240100000000002 C 3.4610131705078127 1.1240100000000002 3.4577551705078124 1.122381 3.4577551705078124 1.119123 C 3.4675291705078126 1.040931 3.6173971705078123 0.8177580000000001 3.6678961705078126 0.7819200000000001 L 3.6678961705078126 0.783549 C 3.6532351705078123 0.832419 3.5359471705078125 1.1240100000000002 3.4642711705078124 1.1240100000000002 M 3.5326891705078123 0.9529650000000001 C 3.5131411705078124 0.982287 3.4919641705078126 1.0148670000000002 3.4756741705078125 1.0458180000000001 C 3.4724161705078123 1.055592 3.4561261705078126 1.0849140000000002 3.4528681705078124 1.102833 C 3.4544971705078127 1.0669950000000001 3.5049961705078125 0.975771 3.5326891705078123 0.9529650000000001" fill="url(#gradient-6c3c6696-9ed9-4b45-8df2-4958076cd193)" fill-rule="nonzero"></path></g><g></g><g clip-path="url(#SvgjsClipPath1001)"><g clip-path="url(#SvgjsClipPath1000c4fa196c-a3af-49fa-8372-ba8ad215bc3f)"><path d=" M -0.35962033102497193 -0.12025130786990584 L -1.3536064750614736 -0.12025130786990584 L -1.3536064750614736 0.8737348361665958 L -0.35962033102497193 0.8737348361665958 Z M -1.3939053343831356 -0.16055016719156773 L -1.3939053343831356 0.9140336954882575 L -0.31932147170331027 0.9140336954882575 L -0.31932147170331027 -0.16055016719156773 Z" fill="url(#gradient-b63de59c-7cbb-433a-9d70-90c09dc32f11_0)" transform="matrix(1,0,0,1,0,0)" fill-rule="evenodd"></path></g><g clip-path="url(#SvgjsClipPath1000c4fa196c-a3af-49fa-8372-ba8ad215bc3f)"><path d=" M -0.22529885932166172 0.014070163833404287 L -1.2192850033581635 0.014070163833404287 L -1.2192850033581635 1.008056307869906 L -0.22529885932166172 1.008056307869906 Z M -1.2595838626798253 -0.026228695488257514 L -1.2595838626798253 1.0483551671915678 L -0.18499999999999994 1.0483551671915678 L -0.18499999999999994 -0.026228695488257514 Z" fill="url(#gradient-b63de59c-7cbb-433a-9d70-90c09dc32f11_1)" transform="matrix(1,0,0,1,0,0)" fill-rule="evenodd"></path></g><path d=" M -1.0625518573363293 0.5686594684096882 L -1.0262073686054078 0.5686594684096882 L -1.0262073686054078 0.31940329392173683 L -1.0625518573363293 0.31940329392173683 L -1.0625518573363293 0.2485186527798685 L -0.9017081625271446 0.2485186527798685 L -0.7864884003801804 0.5305106433587917 L -0.6795170328388156 0.2485186527798685 L -0.5163534770468061 0.2485186527798685 L -0.5163534770468061 0.31940329392173683 L -0.5526979657777277 0.31940329392173683 L -0.5526979657777277 0.5686594684096882 L -0.5168690017096561 0.5686594684096882 L -0.5168690017096561 0.6392863472201314 L -0.6630202436276171 0.6392863472201314 L -0.6630202436276171 0.5686594684096882 L -0.6362129611594198 0.5686594684096882 L -0.6362129611594198 0.34389071540710947 L -0.7532370596263587 0.6346466252544818 L -0.8256682747567767 0.6346466252544818 L -0.9447544718751155 0.3516235853498587 L -0.9447544718751155 0.5686594684096882 L -0.9156273284240932 0.5686594684096882 L -0.9156273284240932 0.6392863472201314 L -1.0625518573363293 0.6392863472201314 L -1.0625518573363293 0.5686594684096882" fill="#114b1e" transform="matrix(1,0,0,1,0,0)" fill-rule="nonzero"></path></g></g><defs><linearGradient id="gradient-6c3c6696-9ed9-4b45-8df2-4958076cd193" x1="0" y1="0" x2="1" y2="1"><stop stop-color="#67a97b" offset="0"></stop><stop stop-color="#1c3423" offset="1"></stop></linearGradient><clipPath id="SvgjsClipPath1001"><path d=" M -1.3939053343831356 -0.16055016719156773 h 1.2089053343831355 v 1.2089053343831355 h -1.2089053343831355 Z"></path></clipPath><clipPath id="SvgjsClipPath1000c4fa196c-a3af-49fa-8372-ba8ad215bc3f"><path d=" M -1.3939053343831356 -0.16055016719156773 L -0.18499999999999994 -0.16055016719156773 L -0.18499999999999994 1.0483551671915678 L -1.3939053343831356 1.0483551671915678 Z"></path></clipPath><linearGradient id="gradient-b63de59c-7cbb-433a-9d70-90c09dc32f11_0" x1="0" x2="1" y1="0" y2="1"><stop stop-color="#3e7742" offset="0"></stop><stop stop-color="#422415" offset="1"></stop></linearGradient><linearGradient id="gradient-b63de59c-7cbb-433a-9d70-90c09dc32f11_1" x1="0" x2="1" y1="0" y2="1"><stop stop-color="#3e6c3c" offset="0"></stop><stop stop-color="#431a10" offset="1"></stop></linearGradient></defs></svg>